<svg width="172" height="174" viewBox="0 0 172 174" fill="none" xmlns="http://www.w3.org/2000/svg">
<g id="Group">
<path id="Vector" d="M0.266667 86.2667L0.666667 172.667H74.6667H148.667L149.067 86.2667L149.333 7.23749e-05H74.6667H0L0.266667 86.2667ZM144 86.6667V168H74.6667H5.33333V86.6667V5.33341H74.6667H144V86.6667Z" fill="#358483"/>
<path id="Vector_2" d="M45.6 16.9334C46 19.0667 48 19.3334 66 19.3334C84 19.3334 86 19.0667 86.4 16.9334C86.8 14.8 85.2 14.6667 66 14.6667C46.8 14.6667 45.2 14.8 45.6 16.9334Z" fill="#358483"/>
<path id="Vector_3" d="M92 17.4667C92 19.8667 92.6667 20.1333 97.6 19.7333C101.733 19.4667 103.467 18.6667 103.733 16.9333C104.133 15.0667 103.2 14.6667 98.1333 14.6667C92.8 14.6667 92 15.0667 92 17.4667Z" fill="#358483"/>
<path id="Vector_4" d="M27.8667 33.0667C16.5333 38.9334 9.19999 53.4667 11.4667 65.4667C13.6 76.5334 23.3333 87.8667 32.9333 90.5334C46.1333 94.2667 57.3333 90.9334 66.2667 80.8C75.6 70.2667 76.9333 56.4 69.8667 44.4C61.3333 29.7334 43.3333 24.9334 27.8667 33.0667ZM40 48.2667V62L49.6 71.6L59.2 81.2L53.2 83.8667C45.3333 87.4667 39.2 87.3334 31.2 83.3334C12 73.7334 12 46 31.2 37.2C40 33.2 40 33.2 40 48.2667ZM53.7333 36.8C56.1333 38 58.2667 39.2 58.5333 39.4667C59.3333 40.2667 47.7333 52 46.4 52C45.8667 52 45.3333 48.1334 45.3333 43.3334C45.3333 33.6 46.1333 32.9334 53.7333 36.8ZM68 54.9334C69.7333 61.4667 68.4 69.2 64.8 74C62.9333 76.5334 62.5333 76.4 54.8 68.6667L46.6667 60.8L54.9333 52.4C64.2667 43.0667 65.0667 43.2 68 54.9334Z" fill="#358483"/>
<path id="Vector_5" d="M81.6 48.8C82.1333 51.6 84.5333 51.8667 85.0667 48.9333C85.3333 47.6 84.6667 46.6667 83.3333 46.6667C82 46.6667 81.3333 47.4667 81.6 48.8Z" fill="#358483"/>
<path id="Vector_6" d="M92 49.3333C92 52 92.6667 52.1333 106.267 51.7333C118.667 51.3333 120.667 51.0666 121.067 48.9333C121.467 46.9333 120.133 46.6666 106.8 46.6666C92.8 46.6666 92 46.8 92 49.3333Z" fill="#358483"/>
<path id="Vector_7" d="M126.667 49.4667C126.667 51.8667 127.333 52.1333 132.267 51.7333C136.4 51.4667 138.133 50.6667 138.4 48.9333C138.8 47.0667 137.867 46.6667 132.8 46.6667C127.467 46.6667 126.667 47.0667 126.667 49.4667Z" fill="#358483"/>
<path id="Vector_8" d="M92.2667 60.2667C92.6667 62.9334 93.4667 63.3334 98 63.3334C102.533 63.3334 103.333 62.9334 103.733 60.2667C104.133 57.6 103.6 57.3334 98 57.3334C92.4 57.3334 91.8667 57.6 92.2667 60.2667Z" fill="#358483"/>
<path id="Vector_9" d="M109.333 59.8667C109.333 62.8 114 64 126 64C136.133 64 138.667 63.2 138.667 59.8667C138.667 57.6 137.467 57.3333 124 57.3333C110.533 57.3333 109.333 57.6 109.333 59.8667Z" fill="#358483"/>
<path id="Vector_10" d="M81.3333 60.6666C81.3333 61.7333 82.2666 62.6666 83.3333 62.6666C84.4 62.6666 85.3333 61.7333 85.3333 60.6666C85.3333 59.6 84.4 58.6666 83.3333 58.6666C82.2666 58.6666 81.3333 59.6 81.3333 60.6666Z" fill="#358483"/>
<path id="Vector_11" d="M81.3333 71.3334C81.3333 72.4 82.2666 73.3334 83.3333 73.3334C84.4 73.3334 85.3333 72.4 85.3333 71.3334C85.3333 70.2667 84.4 69.3334 83.3333 69.3334C82.2666 69.3334 81.3333 70.2667 81.3333 71.3334Z" fill="#358483"/>
<path id="Vector_12" d="M92 72C92 74.4 92.9333 74.6666 103.333 74.6666C113.733 74.6666 114.667 74.4 114.667 72C114.667 69.6 113.733 69.3333 103.333 69.3333C92.9333 69.3333 92 69.6 92 72Z" fill="#358483"/>
<path id="Vector_13" d="M121.333 72C121.333 74.5333 122 74.8 129.6 74.4C136.267 74.1333 138 73.6 138.4 71.6C138.8 69.6 137.733 69.3333 130.133 69.3333C122.133 69.3333 121.333 69.6 121.333 72Z" fill="#358483"/>
<path id="Vector_14" d="M11.2 100.4C10.9333 101.333 10.8 115.2 10.9333 131.333L11.3333 160.667L64.4 161.067C116.667 161.333 117.333 161.333 117.333 158.667C117.333 156 116.533 156 66.6667 156H16V127.333C16 102.533 15.7334 98.6667 14 98.6667C12.8 98.6667 11.6 99.4667 11.2 100.4Z" fill="#358483"/>
<path id="Vector_15" d="M68.8 120L59.7333 126.533L54.2667 123.867L48.9333 121.067L42.4 124.133L36 127.2L32.2666 123.6C25.3333 117.067 20.9333 120 27.4666 126.8L30.8 130.267L26.8 132C22.6666 133.6 21.4666 136.4 24 138C24.6666 138.4 27.4666 137.6 30.2666 136.267L35.2 133.6L43.0666 140.4L50.8 147.2L59.7333 144.267L68.5333 141.333L79.0667 144.267L89.7333 147.2L91.8667 144.4C93.0667 142.933 95.3333 140 96.8 137.867C99.2 134.8 100 134.267 101.467 135.6C103.733 137.867 108 137.733 108 135.6C108 134.533 106.8 132.667 105.333 131.333C102.667 128.933 102.667 128.933 105.333 124.667C108.133 120.133 108.8 116 106.8 116C106.133 116 103.867 118.133 101.733 120.8L97.8667 125.6L90 119.467C85.7333 116.133 81.2 113.333 80.1333 113.333C78.9333 113.467 73.8667 116.4 68.8 120ZM93.8667 129.6C94.5333 130.133 93.6 132.8 91.6 135.867L88.1333 141.067L78.2667 138.4L68.2667 135.6L60 138.4L51.7333 141.2L46.2666 136L40.6666 130.933L44.4 129.2C47.4666 127.867 48.9333 127.867 52.4 129.2C60.6667 132.533 61.7333 132.4 71.2 125.467L80.4 118.8L86.5333 123.733C89.8667 126.4 93.2 128.933 93.8667 129.6Z" fill="#358483"/>
<path id="Vector_16" d="M121.6 118.267C121.867 120.133 123.6 120.8 129.2 121.067C134 121.333 136.8 120.933 137.467 119.867C139.333 116.8 137.333 116 129.2 116C122.267 116 121.2 116.267 121.6 118.267Z" fill="#358483"/>
<path id="Vector_17" d="M121.6 135.6C121.867 137.467 123.6 138.133 129.733 138.4C136.667 138.8 137.333 138.533 137.333 136C137.333 133.6 136.533 133.333 129.2 133.333C122.267 133.333 121.2 133.6 121.6 135.6Z" fill="#358483"/>
<path id="Vector_18" d="M159.6 6.26668C156.667 12.6667 156.667 13.3333 156.267 90.2667C156 166.667 156 168 158.667 170.667C161.867 173.867 165.067 174 169.067 171.2L172 169.2V92C172 16.4 172 14.8 169.2 7.46668C167.6 3.33335 165.467 1.53815e-05 164.4 1.53815e-05C163.467 1.53815e-05 161.2 2.80002 159.6 6.26668ZM166.4 17.7333C166.8 22 166.4 22.6667 164.133 22.6667C161.2 22.6667 160.667 20.5333 162.133 14.9333C163.333 10.4 166 12.1333 166.4 17.7333ZM167.067 29.6C166.8 30.2667 166.667 58.2667 166.667 92C166.667 152.4 166.667 153.333 164 153.333C161.333 153.333 161.333 152.4 161.333 90.5334V27.8667L164.4 28.2667C166 28.5334 167.2 29.0667 167.067 29.6ZM167.467 162.133C168 165.333 164.933 168.667 162.667 167.333C162 166.933 161.333 164.667 161.333 162.533C161.333 159.2 161.867 158.533 164.267 158.933C166 159.2 167.2 160.4 167.467 162.133Z" fill="#358483"/>
</g>
</svg>
