<svg width="172" height="168" viewBox="0 0 172 168" fill="none" xmlns="http://www.w3.org/2000/svg">
<g id="Group">
<path id="Vector" d="M2.93333 0.248823C1.73333 1.71549 6 6.64882 22.5333 23.3155C34.1333 34.9155 48.5333 47.9822 54.4 52.2488C80.5333 71.0488 111.867 82.3822 143.733 84.6488C154.933 85.4488 155.867 85.7155 154.133 87.7155C152.933 89.0488 152.533 90.6488 153.333 91.7155C154.133 93.1822 156.133 92.5155 163.2 88.3822C168 85.5822 172 82.9155 172 82.5155C172 81.5822 156.4 71.8488 154.8 71.8488C152.133 71.8488 151.867 74.7822 154.133 77.3155C156.4 79.7155 156.267 79.8488 152.533 79.8488C144.267 79.8488 124.133 76.7822 112 73.7155C95.8667 69.5822 70.6667 57.3155 56.2667 46.6488C50.2667 42.1155 36 29.4488 24.8 18.5155C8.66667 2.64882 4 -1.08451 2.93333 0.248823Z" fill="#358483"/>
<path id="Vector_2" d="M0 92.9155V167.849H16.6667H33.3333L33.2 108.782L33.0667 49.8489L16.5333 33.9822L0 18.1155V92.9155ZM27.8667 107.449L28 162.516H16.6667H5.33333V96.9155V31.3155L16.5333 41.9822L27.6 52.5155L27.8667 107.449Z" fill="#358483"/>
<path id="Vector_3" d="M45.3333 114.516V167.849H62.6667H80L79.7333 124.249L79.3333 80.5155L69.3333 75.1822C63.8667 72.2489 56.5333 67.8489 53.0667 65.4489C49.6 63.1822 46.5333 61.1822 46.1333 61.1822C45.7333 61.1822 45.3333 85.1822 45.3333 114.516ZM63.0667 77.8489L73.3333 83.1822V122.782V162.516H62H50.6667V117.049C50.6667 92.1155 51.2 71.8489 51.7333 72.1155C52.2667 72.2489 57.4667 74.9155 63.0667 77.8489Z" fill="#358483"/>
<path id="Vector_4" d="M90.6667 126.382V167.849H108H125.333L125.067 130.916L124.667 94.1155L116.133 92.3822C108.933 90.9155 99.6 88.2489 92.4 85.4489C91.0667 85.0489 90.6667 93.7155 90.6667 126.382ZM110.4 96.6489L118.667 98.7822L118.933 127.316C119.067 143.049 119.2 157.182 119.2 158.782C119.333 161.716 118.933 161.849 108 161.849H96.6667L96.2667 127.316L96 92.9155L98.9333 93.7155C100.667 94.1155 105.733 95.4489 110.4 96.6489Z" fill="#358483"/>
<path id="Vector_5" d="M136 131.716V167.849H153.333H170.667V132.516V97.1822H163.6C159.6 97.1822 151.867 96.7822 146.267 96.3822L136 95.4489V131.716ZM165.067 132.116L164.667 161.849H153.333H142L141.6 132.116L141.333 102.516H153.333H165.333L165.067 132.116Z" fill="#358483"/>
</g>
</svg>
