<svg width="171" height="173" viewBox="0 0 171 173" fill="none" xmlns="http://www.w3.org/2000/svg">
<g id="Group">
<path id="Vector" d="M33.0357 2.53995C31.0357 4.27328 29.0357 7.73995 28.6357 10.1399C27.8357 13.8733 28.3691 15.0733 32.6357 18.9399C36.6357 22.8066 37.4357 24.5399 37.4357 28.8066C37.4357 34.0066 37.1691 34.2733 17.9691 49.0733C1.96905 61.3399 -1.23095 64.4066 0.36905 65.6066C1.43572 66.4066 10.2357 73.0733 19.9691 80.4066L37.5691 93.7399L37.1691 99.7399L36.7691 105.74L27.1691 106.14L17.4357 106.54V120.407V134.407H27.4357H37.4357V142.007C37.4357 148.807 37.0357 149.873 33.1691 153.073C29.7024 156.007 28.9024 157.607 28.9024 161.74C28.9024 173.207 44.6357 177.207 49.3024 166.807C51.7024 161.607 51.0357 158.407 46.7691 154.14C43.1691 150.673 42.7691 149.34 42.7691 142.273V134.407H52.1024H61.4357V120.407V106.407H52.1024H42.7691V99.7399V93.2066L60.2357 79.7399L77.7024 66.4066H90.9024H104.102V75.0733V83.7399H137.436H170.769V64.4066V45.0733H155.436H140.102V26.4066V7.73995H95.8357H51.5691L48.7691 4.40662C44.7691 -0.660051 37.5691 -1.46005 33.0357 2.53995ZM43.3024 7.20662C46.1024 10.0066 45.9691 12.1399 42.9024 14.9399C39.3024 18.2733 34.7691 15.7399 34.7691 10.4066C34.7691 5.20662 39.4357 3.33995 43.3024 7.20662ZM134.769 29.74V45.0733H119.436H104.102V53.0733V61.0733H90.5024L76.7691 60.9399L59.8357 48.0066L42.9024 35.0733L42.7691 28.8066C42.7691 23.7399 43.4357 21.8733 46.5024 18.6733L50.1024 14.6733L92.5024 14.5399L134.769 14.4066V29.74ZM55.7024 52.0066C63.3024 57.8733 69.7024 63.0733 69.9691 63.6066C70.6357 64.5399 41.1691 87.7399 39.4357 87.7399C39.0357 87.7399 31.7024 82.4066 23.3024 75.8733L8.10238 64.0066L23.5691 51.8733C32.1024 45.2066 39.8357 40.2733 40.6357 40.6733C41.4357 41.2066 48.2357 46.2733 55.7024 52.0066ZM165.436 64.4066V78.4066L137.836 78.1399L110.102 77.7399L109.702 64.0066L109.302 50.4066H137.436H165.436V64.4066ZM56.1024 119.74V127.74H39.4357H22.7691V119.74V111.74H39.4357H56.1024V119.74ZM43.3024 157.873C44.5024 158.94 45.4357 160.807 45.4357 161.74C45.4357 163.74 41.8357 167.74 40.1024 167.74C34.7691 167.74 32.5024 159.873 37.1691 157.207C40.2357 155.34 40.9024 155.34 43.3024 157.873Z" fill="#358483"/>
<path id="Vector_2" d="M114.769 58.4066C114.769 60.9399 115.702 61.0732 137.436 61.0732C159.169 61.0732 160.102 60.9399 160.102 58.4066C160.102 55.8732 159.169 55.7399 137.436 55.7399C115.702 55.7399 114.769 55.8732 114.769 58.4066Z" fill="#358483"/>
<path id="Vector_3" d="M115.702 67.2067C115.169 67.74 114.769 68.94 114.769 70.0067C114.769 71.34 119.036 71.74 134.902 71.74C153.302 71.74 154.902 71.6067 154.502 69.34C154.102 67.34 151.969 67.0733 135.302 66.6733C125.036 66.54 116.236 66.8067 115.702 67.2067Z" fill="#358483"/>
<path id="Vector_4" d="M73.4357 128.407V153.073H118.102H162.769V128.407V103.74H118.102H73.4357V128.407ZM157.436 128.407V147.74H118.102H78.7691V128.407V109.073H118.102H157.436V128.407Z" fill="#358483"/>
<path id="Vector_5" d="M84.1024 117.073C84.1024 118.807 85.0357 119.74 86.7691 119.74C88.5024 119.74 89.4357 118.807 89.4357 117.073C89.4357 115.34 88.5024 114.407 86.7691 114.407C85.0357 114.407 84.1024 115.34 84.1024 117.073Z" fill="#358483"/>
<path id="Vector_6" d="M96.1024 117.073C96.1024 119.607 97.0357 119.74 123.436 119.74C149.836 119.74 150.769 119.607 150.769 117.073C150.769 114.54 149.836 114.407 123.436 114.407C97.0357 114.407 96.1024 114.54 96.1024 117.073Z" fill="#358483"/>
<path id="Vector_7" d="M84.1024 127.74C84.1024 129.473 85.0357 130.407 86.7691 130.407C88.5024 130.407 89.4357 129.473 89.4357 127.74C89.4357 126.007 88.5024 125.073 86.7691 125.073C85.0357 125.073 84.1024 126.007 84.1024 127.74Z" fill="#358483"/>
<path id="Vector_8" d="M96.1024 127.74C96.1024 130.273 97.0357 130.407 123.436 130.407C149.836 130.407 150.769 130.273 150.769 127.74C150.769 125.207 149.836 125.073 123.436 125.073C97.0357 125.073 96.1024 125.207 96.1024 127.74Z" fill="#358483"/>
<path id="Vector_9" d="M84.1024 139.74C84.1024 141.473 85.0357 142.407 86.7691 142.407C88.5024 142.407 89.4357 141.473 89.4357 139.74C89.4357 138.007 88.5024 137.073 86.7691 137.073C85.0357 137.073 84.1024 138.007 84.1024 139.74Z" fill="#358483"/>
<path id="Vector_10" d="M96.1024 139.74C96.1024 142.273 97.0357 142.407 123.436 142.407C149.836 142.407 150.769 142.273 150.769 139.74C150.769 137.207 149.836 137.073 123.436 137.073C97.0357 137.073 96.1024 137.207 96.1024 139.74Z" fill="#358483"/>
</g>
</svg>
