<svg width="173" height="159" viewBox="0 0 173 159" fill="none" xmlns="http://www.w3.org/2000/svg">
<path d="M68.4433 1.48539C67.91 1.91984 67.51 4.52653 67.51 6.98841C67.51 11.0433 66.9766 11.7674 62.1766 13.3603C49.91 17.4152 40.9766 23.2078 31.6433 33.6346C17.11 49.854 8.8433 70.2731 8.8433 90.4026C8.8433 99.2364 8.57664 100.105 5.50997 101.553C1.50997 103.581 -0.890031 109.374 0.309969 114.297C1.6433 120.09 6.97664 123.566 14.31 123.566C19.2433 123.566 20.8433 124.145 20.8433 125.738C20.8433 129.358 31.51 140.943 38.1766 144.564C45.11 148.474 55.91 151.95 65.11 153.253C68.5766 153.687 71.6433 154.991 72.0433 156.149C72.9766 159.046 98.8433 159.335 100.443 156.439C100.977 155.425 106.843 153.398 113.243 151.95C131.51 148.184 146.177 139.061 150.71 128.779C152.71 124.29 153.377 123.855 160.443 123.276C166.177 122.697 168.577 121.828 170.443 119.221C174.177 114.297 173.51 107.056 169.11 103.002C165.777 99.9605 165.243 98.2227 164.443 88.6648C162.71 66.5079 155.11 48.9851 139.777 31.752C135.11 26.3938 130.843 22.1941 130.177 22.1941C129.51 22.1941 124.843 20.0219 119.643 17.2704C114.577 14.6637 109.11 12.057 107.51 11.6225C105.51 11.0433 104.843 9.73992 104.843 5.68506V0.471676H87.11C77.2433 0.471676 68.8433 0.906124 68.4433 1.48539ZM99.51 38.1239C99.51 69.5491 99.51 69.8387 96.5766 71.7213C94.8433 72.5902 90.5766 73.4591 86.8433 73.4591C83.2433 73.4591 78.8433 72.5902 77.2433 71.7213C74.1766 69.8387 74.1766 69.5491 74.1766 38.1239V6.26433H86.8433H99.51V38.1239ZM67.51 44.0614C67.51 58.543 68.0433 71.4317 68.8433 72.8798C69.51 74.328 72.8433 76.6451 76.1766 78.0932C83.6433 81.1344 95.7766 80.1206 100.71 76.0658C104.177 73.3143 104.177 73.1695 104.843 45.944C105.643 14.5189 104.577 16.1118 119.11 23.7871L127.51 28.1316L127.777 53.7641C128.177 75.3417 128.443 79.3966 130.177 79.3966C131.91 79.3966 132.177 75.7762 132.577 57.2397C132.71 45.2199 133.377 35.2276 133.91 35.2276C135.777 35.2276 144.443 45.7992 148.71 53.3296C154.043 62.4531 157.643 75.3417 158.977 88.6648L159.91 98.9468H151.243C146.577 98.9468 134.043 97.209 123.51 95.1815C105.91 91.7059 102.043 91.5611 80.8433 92.2852C66.5766 92.7197 54.1766 93.8782 48.8433 95.3264C44.0433 96.6297 34.31 97.933 27.2433 98.5123L14.1766 99.3812V91.9956C14.1766 80.9895 16.5766 70.418 21.6433 59.1223C26.0433 49.2748 35.7766 35.2276 38.31 35.2276C38.9766 35.2276 39.51 44.6407 39.51 56.95C39.51 75.3417 39.7766 78.9621 41.51 79.6862C42.71 80.1206 43.91 80.2655 44.1766 79.831C44.4433 79.5414 44.9766 67.9561 45.11 54.0537L45.51 28.7109L55.3766 23.2078C60.71 20.3115 65.7766 17.8496 66.31 17.8496C66.9766 17.8496 67.51 29.5798 67.51 44.0614ZM124.843 101.843C132.577 103.436 144.577 105.319 151.51 105.753C158.443 106.188 164.977 107.201 165.91 108.07C168.043 109.953 167.91 114.442 165.643 115.89C164.577 116.47 128.443 116.759 85.2433 116.325L6.8433 115.601V111.256V106.912L20.1766 105.898C27.51 105.463 40.1766 103.581 48.1766 101.988C69.7766 97.6434 69.2433 97.6434 90.8433 98.2227C104.177 98.6571 115.51 99.8157 124.843 101.843ZM35.6433 127.765C40.1766 132.834 50.4433 137.323 62.71 139.64C70.4433 141.088 71.51 141.668 71.51 144.419C71.51 147.605 71.2433 147.605 63.51 146.591C53.7766 144.998 42.31 140.799 36.5766 136.454C32.0433 133.123 26.31 126.607 26.1766 124.579C26.0433 121.973 32.0433 124 35.6433 127.765ZM78.1766 126.462C78.1766 128.344 76.8433 129.937 74.8433 130.806C72.9766 131.53 71.51 132.689 71.51 133.413C71.51 136.599 45.11 129.648 42.1766 125.593C40.71 123.855 43.11 123.566 59.3766 123.566C77.3766 123.566 78.1766 123.71 78.1766 126.462ZM88.8433 127.041C88.8433 129.793 88.31 130.372 86.1766 129.793C84.71 129.358 83.51 127.765 83.51 126.317C83.51 124.579 84.4433 123.566 86.1766 123.566C88.0433 123.566 88.8433 124.579 88.8433 127.041ZM132.843 124.29C132.843 125.738 122.577 130.517 116.177 131.965C104.177 134.716 102.043 134.861 101.243 132.834C100.843 131.675 99.3766 130.806 98.0433 130.806C96.1766 130.806 95.51 129.793 95.51 127.186V123.566H114.177C124.443 123.566 132.843 123.855 132.843 124.29ZM146.177 125.593C146.177 128.634 137.11 136.599 129.11 140.654C122.31 143.985 103.91 148.474 101.91 147.171C101.243 146.881 100.843 145.433 100.843 143.985C100.843 141.812 102.71 141.088 110.577 139.64C121.377 137.758 134.71 131.53 138.71 126.607C141.643 123.131 146.177 122.552 146.177 125.593ZM95.2433 144.129C94.8433 151.37 94.5766 151.805 90.9766 152.239C88.8433 152.529 85.11 152.384 82.5766 151.805C78.31 150.936 78.1766 150.791 78.1766 143.84V136.599H86.9766H95.6433L95.2433 144.129Z" fill="#358483"/>
</svg>
