<svg width="59" height="60" viewBox="0 0 59 60" fill="none" xmlns="http://www.w3.org/2000/svg">
<path d="M25.0772 3.97595C23.3438 8.64542 18.4105 10.5132 14.4105 8.11177C12.2772 6.64422 11.3438 6.77764 9.21052 9.04566C6.94385 11.3137 6.81052 12.1142 8.14385 14.649C10.2772 18.518 8.01052 23.5877 3.47718 25.3221C-1.45615 27.1899 -1.05615 32.6598 4.14385 35.3281C7.61052 37.0625 8.54385 38.6635 8.41052 42.6659C8.41052 43.0661 8.14385 44.5336 7.61052 46.1346C7.21052 47.6022 7.61052 49.8702 8.67718 51.3377C10.2772 53.4724 10.9438 53.6058 14.5438 52.1382C19.4772 50.0036 23.4772 51.738 24.6772 56.6743C25.3438 59.3425 26.4105 60.0096 29.4772 60.0096C32.0105 60.0096 33.6105 59.2091 34.1438 57.4748C34.5438 56.1406 36.0105 54.006 37.4772 52.6719C39.7438 50.6707 40.6772 50.5373 44.1438 52.0048C47.7438 53.4724 48.6772 53.4724 50.5438 51.4712C52.2772 49.7368 52.4105 48.6695 51.2105 45.3341C50.0105 41.9988 50.1438 40.9315 52.4105 37.9964C53.8772 36.1286 55.8772 34.6611 56.9438 34.6611C58.1438 34.6611 58.8105 33.1935 58.8105 30.7921C58.8105 27.7236 57.8772 26.3894 55.2105 25.0553C51.7438 23.3209 51.4772 22.6538 51.7438 16.25C52.0105 11.5805 51.4772 9.17908 50.4105 9.04566C49.4772 9.04566 46.1438 8.91225 42.9438 8.77884C37.8772 8.64542 36.8105 8.11177 34.8105 4.64302C31.6105 -1.09376 27.0772 -1.36059 25.0772 3.97595ZM36.5438 13.4483C41.6105 16.1166 45.3438 20.2524 46.9438 24.9219C48.5438 29.9916 47.4772 38.6635 45.2105 38.6635C42.0105 38.6635 37.4772 32.7933 37.4772 28.6574C37.4772 23.4543 34.5438 19.1851 30.1438 18.1178C25.3438 16.9171 23.3438 18.518 26.8105 20.9195C30.4105 23.4543 29.8772 28.524 26.0105 29.0577C24.5438 29.3245 22.4105 28.524 21.4772 27.3233C19.0772 24.3882 17.4772 24.9219 17.4772 28.6574C17.4772 33.4603 21.8772 37.3293 27.3438 37.3293C32.1438 37.3293 38.8105 41.5986 38.8105 44.6671C38.8105 47.4687 30.4105 49.3365 24.9438 47.869C19.4772 46.4014 12.8105 39.0637 11.4772 33.3269C10.1438 27.3233 15.3438 17.3173 21.4772 14.3822C26.8105 11.5805 32.4105 11.3137 36.5438 13.4483Z" fill="#358483"/>
</svg>
