<svg width="173" height="146" viewBox="0 0 173 146" fill="none" xmlns="http://www.w3.org/2000/svg">
<g id="Group">
<path id="Vector" d="M68.4433 0.933342C67.91 1.33334 67.51 3.73334 67.51 6.00001C67.51 9.73334 66.9766 10.4 62.1766 11.8667C49.91 15.6 40.9766 20.9334 31.6433 30.5334C17.11 45.4667 8.8433 64.2667 8.8433 82.8C8.8433 90.9334 8.57664 91.7334 5.50997 93.0667C1.50997 94.9334 -0.890031 100.267 0.309969 104.8C1.6433 110.133 6.97664 113.333 14.31 113.333C19.2433 113.333 20.8433 113.867 20.8433 115.333C20.8433 118.667 31.51 129.333 38.1766 132.667C45.11 136.267 55.91 139.467 65.11 140.667C68.5766 141.067 71.6433 142.267 72.0433 143.333C72.9766 146 98.8433 146.267 100.443 143.6C100.977 142.667 106.843 140.8 113.243 139.467C131.51 136 146.177 127.6 150.71 118.133C152.71 114 153.377 113.6 160.443 113.067C166.177 112.533 168.577 111.733 170.443 109.333C174.177 104.8 173.51 98.1334 169.11 94.4C165.777 91.6 165.243 90 164.443 81.2C162.71 60.8 155.11 44.6667 139.777 28.8C135.11 23.8667 130.843 20 130.177 20C129.51 20 124.843 18 119.643 15.4667C114.577 13.0667 109.11 10.6667 107.51 10.2667C105.51 9.73335 104.843 8.53334 104.843 4.80001V8.6891e-06H87.11C77.2433 8.6891e-06 68.8433 0.400009 68.4433 0.933342ZM99.51 34.6667C99.51 63.6 99.51 63.8667 96.5766 65.6C94.8433 66.4 90.5766 67.2 86.8433 67.2C83.2433 67.2 78.8433 66.4 77.2433 65.6C74.1766 63.8667 74.1766 63.6 74.1766 34.6667V5.33334H86.8433H99.51V34.6667ZM67.51 40.1334C67.51 53.4667 68.0433 65.3334 68.8433 66.6667C69.51 68 72.8433 70.1334 76.1766 71.4667C83.6433 74.2667 95.7766 73.3334 100.71 69.6C104.177 67.0667 104.177 66.9334 104.843 41.8667C105.643 12.9334 104.577 14.4 119.11 21.4667L127.51 25.4667L127.777 49.0667C128.177 68.9334 128.443 72.6667 130.177 72.6667C131.91 72.6667 132.177 69.3334 132.577 52.2667C132.71 41.2 133.377 32 133.91 32C135.777 32 144.443 41.7334 148.71 48.6667C154.043 57.0667 157.643 68.9333 158.977 81.2L159.91 90.6667H151.243C146.577 90.6667 134.043 89.0667 123.51 87.2C105.91 84 102.043 83.8667 80.8433 84.5334C66.5766 84.9334 54.1766 86 48.8433 87.3334C44.0433 88.5334 34.31 89.7334 27.2433 90.2667L14.1766 91.0667V84.2667C14.1766 74.1333 16.5766 64.4 21.6433 54C26.0433 44.9334 35.7766 32 38.31 32C38.9766 32 39.51 40.6667 39.51 52C39.51 68.9334 39.7766 72.2667 41.51 72.9334C42.71 73.3334 43.91 73.4667 44.1766 73.0667C44.4433 72.8 44.9766 62.1334 45.11 49.3334L45.51 26L55.3766 20.9334C60.71 18.2667 65.7766 16 66.31 16C66.9766 16 67.51 26.8 67.51 40.1334ZM124.843 93.3334C132.577 94.8 144.577 96.5334 151.51 96.9334C158.443 97.3334 164.977 98.2667 165.91 99.0667C168.043 100.8 167.91 104.933 165.643 106.267C164.577 106.8 128.443 107.067 85.2433 106.667L6.8433 106V102V98L20.1766 97.0667C27.51 96.6667 40.1766 94.9334 48.1766 93.4667C69.7766 89.4667 69.2433 89.4667 90.8433 90C104.177 90.4 115.51 91.4667 124.843 93.3334ZM35.6433 117.2C40.1766 121.867 50.4433 126 62.71 128.133C70.4433 129.467 71.51 130 71.51 132.533C71.51 135.467 71.2433 135.467 63.51 134.533C53.7766 133.067 42.31 129.2 36.5766 125.2C32.0433 122.133 26.31 116.133 26.1766 114.267C26.0433 111.867 32.0433 113.733 35.6433 117.2ZM78.1766 116C78.1766 117.733 76.8433 119.2 74.8433 120C72.9766 120.667 71.51 121.733 71.51 122.4C71.51 125.333 45.11 118.933 42.1766 115.2C40.71 113.6 43.11 113.333 59.3766 113.333C77.3766 113.333 78.1766 113.467 78.1766 116ZM88.8433 116.533C88.8433 119.067 88.31 119.6 86.1766 119.067C84.71 118.667 83.51 117.2 83.51 115.867C83.51 114.267 84.4433 113.333 86.1766 113.333C88.0433 113.333 88.8433 114.267 88.8433 116.533ZM132.843 114C132.843 115.333 122.577 119.733 116.177 121.067C104.177 123.6 102.043 123.733 101.243 121.867C100.843 120.8 99.3766 120 98.0433 120C96.1766 120 95.51 119.067 95.51 116.667V113.333H114.177C124.443 113.333 132.843 113.6 132.843 114ZM146.177 115.2C146.177 118 137.11 125.333 129.11 129.067C122.31 132.133 103.91 136.267 101.91 135.067C101.243 134.8 100.843 133.467 100.843 132.133C100.843 130.133 102.71 129.467 110.577 128.133C121.377 126.4 134.71 120.667 138.71 116.133C141.643 112.933 146.177 112.4 146.177 115.2ZM95.2433 132.267C94.8433 138.933 94.5766 139.333 90.9766 139.733C88.8433 140 85.11 139.867 82.5766 139.333C78.31 138.533 78.1766 138.4 78.1766 132V125.333H86.9766H95.6433L95.2433 132.267Z" fill="#358483"/>
</g>
</svg>
