<svg width="172" height="139" viewBox="0 0 172 139" fill="none" xmlns="http://www.w3.org/2000/svg">
<g id="Group">
<path id="Vector" d="M5.86667 1.98368C3.6 3.05035 1.33333 4.78368 0.8 6.11702C0.4 7.31702 0 32.6504 0 62.2504C0 114.384 0.133333 116.25 2.66667 118.784C4.26667 120.384 7.06667 121.45 10 121.45C13.7333 121.45 14.6667 121.984 14.6667 124.117C14.6667 127.584 21.7333 135.317 26.6667 137.45C29.0667 138.384 33.3333 138.784 36.9333 138.384C42.1333 137.85 44.1333 136.784 48.2667 132.25C51.0667 129.317 53.3333 125.717 53.3333 124.117C53.3333 121.45 54 121.45 85.2 121.45H116.933L120.133 127.584C123.867 134.784 130.133 138.784 137.733 138.784C146.133 138.784 155.2 132.384 156.667 125.317C157.467 121.584 157.867 121.45 164.8 121.45H172V86.117V50.7837L157.733 35.317C150 26.7837 142.133 19.317 140.4 18.6504C138.533 17.9837 130.933 17.4504 123.2 17.4504C109.333 17.4504 109.333 17.4504 109.333 14.2504C109.333 8.25035 106.8 3.98368 102 2.11702C95.4667 -0.682983 12.1333 -0.682983 5.86667 1.98368ZM102.4 44.3837L102.667 81.4504H54H5.33333V71.4504V61.5837L26.2667 61.1837C45.0667 60.7837 47.3333 60.517 47.7333 58.3837C48.1333 56.2504 46.4 56.117 26.8 56.117H5.33333V51.4504V46.7837H20.6667C35.0667 46.7837 36 46.6504 36 44.117C36 41.5837 35.0667 41.4504 20.6667 41.4504H5.33333V25.0504C5.33333 15.9837 5.73333 8.11702 6.26667 7.71702C6.8 7.18368 28.5333 6.91702 54.5333 7.05035L102 7.45035L102.4 44.3837ZM142.4 25.717C145.467 28.7837 143.867 29.4504 132 29.4504C121.6 29.4504 119.867 29.717 118.667 31.9837C118 33.4504 117.333 41.317 117.333 49.4504C117.333 57.5837 118 65.4504 118.667 66.917C120 69.317 121.733 69.4504 143.333 69.4504H166.667V76.7837V84.117H158.8C153.333 84.117 150.8 84.6504 150.267 85.9837C149.067 88.917 150.533 89.4504 158.933 89.4504H166.667V102.784V116.117H162.4C158.533 115.984 157.6 115.317 155.333 110.517C151.467 102.517 146.667 99.4504 138 99.4504C129.467 99.4504 124.8 102.384 120.267 110.517C117.733 115.05 116.4 116.117 113.2 116.117H109.333V70.117V24.117H125.067C135.467 24.117 141.333 24.6504 142.4 25.717ZM158.4 43.9837C165.733 52.117 166.667 53.8504 166.667 58.6504V64.117H145.333H124V49.4504V34.7837H137.067H150L158.4 43.9837ZM102.667 101.45V116.117H78.1333H53.6L52.8 112.917C50.5333 103.984 39.7333 97.5837 30.1333 99.317C24 100.517 16.4 107.05 15.3333 112.25C14.5333 115.85 14 116.25 10.2667 115.85L6 115.45L5.6 101.05L5.2 86.7837H54H102.667V101.45ZM44.4 109.45C52.8 118.784 46.4 133.45 33.7333 133.45C21.4667 133.45 14.9333 118.784 23.2 109.584C29.3333 102.784 38.2667 102.784 44.4 109.45ZM148.4 109.45C152.267 113.85 153.333 121.85 150.667 126.917C148.933 130.117 142.533 133.45 138 133.45C133.467 133.45 127.067 130.117 125.333 126.917C124.667 125.45 124 121.984 124 119.05C124 105.584 139.467 99.5837 148.4 109.45Z" fill="#358483"/>
<path id="Vector_2" d="M29.0667 116.784C28 119.317 28 120.517 29.3334 122.117C31.7334 124.917 36.9334 124.65 38.6667 121.584C40.4 118.25 40.4 117.984 37.8667 115.584C34.8 112.384 30.8 112.917 29.0667 116.784Z" fill="#358483"/>
<path id="Vector_3" d="M134.133 115.584C131.6 118.117 131.467 120.384 133.6 122.517C138.133 127.05 145.6 121.717 142.667 116.117C140.933 112.917 136.933 112.65 134.133 115.584Z" fill="#358483"/>
</g>
</svg>
