<svg width="176" height="175" viewBox="0 0 176 175" fill="none" xmlns="http://www.w3.org/2000/svg">
<g id="Group">
<path id="Vector" d="M19.1154 3.71678C13.7821 10.5168 19.5154 19.7168 28.1821 18.2501C34.4487 17.3168 44.9821 22.6501 47.9154 28.5168C50.7154 33.8501 52.0487 34.7834 57.2487 34.7834C61.6487 34.7834 65.7821 31.3168 65.7821 27.7168C65.7821 23.9834 78.5821 18.3834 87.7821 18.1168C94.1821 17.8501 96.8487 18.5168 101.782 21.4501C105.115 23.3168 108.449 26.2501 109.115 27.7168C111.782 32.9168 114.049 34.7834 117.782 34.7834C123.649 34.7834 125.782 33.4501 127.649 28.7834C130.182 22.7834 140.315 17.1834 146.982 18.2501C152.582 19.1834 156.982 16.2501 158.449 10.7834C159.115 8.11678 158.982 7.85011 157.782 9.45011C156.449 11.0501 156.315 10.7834 156.982 8.11678C157.915 3.71678 154.449 0.116779 149.115 0.116779C144.849 0.116779 141.649 2.65011 140.049 7.05011C139.649 8.38345 136.315 11.1834 132.849 13.4501C127.782 16.6501 125.515 17.3168 121.782 16.7834C119.249 16.3834 115.115 16.6501 112.715 17.3168C110.315 17.9834 108.715 18.1168 108.982 17.5834C109.915 16.1168 102.049 11.8501 100.182 12.9168C99.3821 13.4501 99.1154 13.3168 99.5154 12.5168C100.049 11.7168 99.5154 10.7834 98.4487 10.2501C97.3821 9.85011 96.4487 8.38345 96.4487 7.05011C96.4487 3.45011 92.1821 0.116779 87.5154 0.116779C83.2487 0.116779 79.1154 3.58345 79.1154 7.18345C79.1154 8.38345 76.1821 10.9168 72.4487 12.9168C68.8487 14.9168 66.1821 16.9168 66.4487 17.5834C66.8487 18.1168 64.9821 17.9834 62.3154 17.1834C59.6487 16.5168 56.0487 16.2501 54.3154 16.6501C50.7154 17.5834 36.4487 11.1834 36.4487 8.65011C36.4487 7.85011 35.2487 5.58345 33.6487 3.58345C29.7821 -1.21655 22.9821 -1.21655 19.1154 3.71678Z" fill="#358483"/>
<path id="Vector_2" d="M14.3154 28.5168C14.0487 29.4501 13.9154 51.0501 14.0487 76.5168L14.4487 122.783L19.7821 127.983C22.7154 130.783 26.5821 135.05 28.3154 137.45C32.0487 142.517 31.2487 143.45 21.9154 144.783C14.8487 145.717 8.31539 149.717 5.38205 154.783C2.98205 158.783 -0.884614 173.05 0.182053 173.983C1.11539 174.917 174.449 175.05 175.382 174.117C176.449 173.05 174.982 166.783 173.782 167.45C173.115 167.85 172.982 166.783 173.515 165.183C173.915 163.45 173.649 162.65 172.849 163.183C171.915 163.85 171.649 163.183 172.049 161.45C172.982 157.717 167.782 150.117 162.715 147.717C160.449 146.65 154.982 145.05 150.715 144.117L142.982 142.517L146.982 137.717C149.249 135.05 153.382 130.517 156.049 127.85L161.115 122.917V76.5168L161.249 30.1168L160.449 75.4501L159.782 120.783L159.382 75.0501L159.115 29.4501L148.849 29.1834L138.449 28.9168L149.782 28.1168L161.115 27.1834L149.115 27.3168L137.115 27.4501L136.715 45.0501L136.315 62.7834H140.449H144.449V48.7834V34.7834H149.115H153.782V58.9168C153.782 77.7168 153.382 82.7834 152.182 82.2501C151.249 81.8501 149.382 81.0501 148.049 80.6501C145.782 79.8501 144.982 77.5834 144.182 70.7834C143.649 66.3834 137.915 65.1834 136.849 69.3168C136.449 70.9168 134.982 72.1168 133.649 72.1168C131.382 72.1168 131.115 70.6501 130.849 57.0501L130.449 42.1168L118.849 41.7168L107.115 41.3168V59.3168C107.115 69.1834 106.582 77.5834 106.049 77.9834C105.382 78.3834 103.515 77.4501 102.049 75.9834C99.2487 73.4501 99.1154 72.1168 99.1154 50.1168V26.7834H87.7821H76.4487L76.3154 31.7168C75.5154 70.5168 75.1154 74.1168 72.8487 75.8501C70.5821 77.4501 70.4487 76.5168 69.7821 59.8501L69.1154 42.1168H57.1154H45.1154L44.7154 57.0501C44.4487 70.6501 44.1821 72.1168 41.9154 72.1168C40.5821 72.1168 39.1154 70.9168 38.7154 69.3168C38.1821 67.3168 37.1154 66.6501 34.8487 67.0501C32.4487 67.3168 31.6487 68.3834 31.3821 71.7168C31.1154 74.6501 29.6487 76.9168 26.3154 79.4501L21.7821 82.9168V58.9168V34.7834H26.4487H31.1154V48.7834V62.7834H35.1154H39.2487L38.8487 45.0501L38.4487 27.4501L26.7154 27.0501C17.9154 26.7834 14.8487 27.0501 14.3154 28.5168ZM92.4487 53.4501V72.1168H87.7821H83.1154V53.4501V34.7834H87.7821H92.4487V53.4501ZM56.4487 83.7168C60.5821 87.4501 60.5821 87.4501 58.5821 92.3834C57.3821 95.1834 56.4487 98.6501 56.4487 100.117C56.4487 103.717 54.3154 103.45 48.1821 99.1834L42.9821 95.7168L39.3821 99.0501C37.3821 100.917 34.4487 103.183 32.8487 103.983C29.6487 105.583 21.7821 105.983 21.7821 104.383C21.7821 100.383 25.2487 92.6501 28.8487 88.5168C36.8487 79.3168 49.2487 77.1834 56.4487 83.7168ZM99.1154 84.3834C110.449 93.1834 112.449 95.5834 112.449 100.65C112.449 105.45 112.449 105.45 106.849 105.45C100.582 105.45 91.5154 101.85 88.5821 98.3834C86.1821 95.3168 84.0487 95.5834 80.9821 98.9168C77.3821 102.917 71.9154 105.45 67.1154 105.45C63.1154 105.45 62.9821 105.317 63.7821 101.05C66.1821 89.9834 77.3821 80.1168 87.7821 80.1168C92.1821 80.1168 94.7154 81.0501 99.1154 84.3834ZM140.182 83.8501C142.315 85.8501 145.649 88.2501 147.649 89.1834C151.782 91.0501 154.049 96.2501 153.515 101.983C153.115 105.717 152.715 106.117 149.115 105.717C142.449 105.05 136.049 102.65 131.382 99.1834C127.115 95.9834 126.849 95.9834 124.315 98.2501C122.049 100.383 121.382 100.383 120.449 98.7834C119.649 97.7168 119.115 95.9834 119.115 95.0501C119.115 94.1168 118.182 91.5834 117.115 89.4501C115.115 85.5834 115.115 85.4501 119.382 82.7834C126.049 78.6501 135.115 79.1834 140.182 83.8501ZM49.3821 109.05C54.0487 111.05 55.1154 112.117 55.1154 114.783C55.1154 116.65 56.3154 120.65 57.7821 123.45C60.4487 128.65 60.4487 128.783 58.0487 132.117C54.4487 136.917 49.7821 138.917 44.0487 138.25C37.6487 137.583 32.8487 133.183 30.9821 126.383C28.7154 117.717 29.7821 113.183 34.7154 111.583C37.1154 110.783 39.7821 109.317 40.7154 108.383C42.7154 106.383 42.7154 106.383 49.3821 109.05ZM94.8487 110.65L103.115 113.85V120.383C103.115 134.517 91.7821 142.65 80.4487 136.783C75.2487 134.117 72.4487 128.383 72.4487 120.25C72.4487 113.583 72.4487 113.583 78.8487 110.25C82.3154 108.517 85.3821 107.05 85.7821 107.183C86.1821 107.317 90.1821 108.917 94.8487 110.65ZM138.182 111.317C145.515 113.983 145.782 114.25 145.649 118.783C145.649 126.383 142.849 132.517 137.915 135.717C131.249 140.25 125.382 139.717 119.515 134.383L114.715 129.85L117.515 123.85C119.115 120.65 120.449 116.383 120.449 114.517C120.449 110.65 125.382 106.517 128.449 107.717C129.515 108.117 133.915 109.717 138.182 111.317ZM50.4487 148.117C50.8487 148.917 50.0487 151.05 48.5821 152.917C46.9821 154.917 45.1154 158.783 44.4487 161.583L42.9821 166.783H26.3154H9.51539L10.3154 163.05C11.5154 157.983 16.9821 153.583 23.1154 152.65C26.0487 152.117 28.1821 151.45 27.9154 150.917C27.5154 150.383 29.2487 150.25 31.5154 150.383C33.9154 150.65 37.2487 149.983 39.1154 148.917C43.1154 146.65 49.2487 146.25 50.4487 148.117ZM92.4487 147.983C92.4487 148.517 97.6487 150.117 104.182 151.45C110.582 152.65 116.849 154.25 118.182 155.05C120.315 156.117 124.449 163.583 124.449 166.117C124.449 166.517 121.782 166.783 118.449 166.783C112.715 166.783 112.582 166.65 111.649 162.117C111.249 159.583 110.315 157.45 109.782 157.45C106.315 157.45 104.449 159.45 104.449 162.917V166.783H87.7821H71.1154V162.917C71.1154 160.117 70.3154 158.65 68.3154 158.117C65.1154 157.05 65.3821 156.917 63.6487 162.117C62.5821 165.583 61.6487 166.117 56.7154 166.517C53.6487 166.783 51.1154 166.65 51.1154 166.383C51.1154 163.45 54.5821 157.183 57.2487 155.45C58.9821 154.25 65.6487 152.383 71.7821 151.317C78.0487 150.117 83.1154 148.65 83.1154 147.983C83.1154 147.317 85.2487 146.783 87.7821 146.783C90.3154 146.783 92.4487 147.317 92.4487 147.983ZM134.582 148.25C134.982 149.05 136.849 149.45 138.582 149.05C140.449 148.783 141.382 149.05 140.849 149.85C140.449 150.65 141.649 150.917 144.182 150.517C146.449 150.25 148.049 150.383 147.782 150.917C147.382 151.317 149.515 152.117 152.449 152.65C158.582 153.583 164.049 157.983 165.249 163.05L166.049 166.783H149.249H132.582L131.115 161.583C130.449 158.783 128.582 154.917 127.115 153.05C125.649 151.183 124.449 149.05 124.449 148.25C124.449 146.383 133.382 146.383 134.582 148.25Z" fill="#358483"/>
</g>
</svg>
