<svg width="172" height="174" viewBox="0 0 172 174" fill="none" xmlns="http://www.w3.org/2000/svg">
<g id="Group">
<path id="Vector" d="M51.9206 1.20706C34.1872 4.14038 16.1872 17.4737 7.52057 34.1404C-2.7461 53.8737 -2.47943 74.5404 8.18723 94.6737C12.7206 103.207 25.1206 115.607 32.9872 119.607C52.5872 129.474 73.9206 129.474 93.3872 119.607L98.1872 117.207L105.654 124.807C109.921 129.074 113.254 133.74 113.254 135.074C113.254 137.874 147.387 173.074 149.921 173.074C152.054 173.074 171.921 152.54 171.921 150.407C171.921 147.34 138.321 114.407 135.254 114.407C133.654 114.407 129.121 110.94 124.587 106.407L116.721 98.4071L119.787 92.1404C132.321 66.6737 127.387 37.8737 107.387 18.6737C97.7872 9.34039 88.3206 4.27373 76.0539 1.60706C66.1872 -0.392944 62.5872 -0.526276 51.9206 1.20706ZM88.0539 11.4737C100.054 17.2071 109.787 27.0737 115.787 39.6071C120.321 49.2071 120.587 50.4071 120.587 63.8737C120.587 77.3404 120.454 78.2737 115.521 88.1404C110.054 99.0737 102.054 108.14 92.9872 113.474C75.1206 123.874 50.0539 123.74 32.9872 112.94C1.78723 93.0737 -3.67943 50.9404 21.3872 24.4071C34.7206 10.2737 44.9872 6.14038 65.2539 6.80705C77.7872 7.07372 80.1872 7.60706 88.0539 11.4737ZM120.854 110.674C124.721 114.54 127.921 118.407 127.921 119.207C127.921 120.14 125.787 122.674 123.121 125.074L118.187 129.34L111.121 122.274C107.121 118.407 103.921 114.54 103.921 113.874C103.921 112.54 111.921 103.74 113.121 103.74C113.521 103.74 116.987 106.807 120.854 110.674ZM165.254 151.207C165.254 152.007 161.921 155.874 157.787 159.74L150.321 166.807L134.854 151.34L119.254 135.74L127.254 127.74L135.254 119.74L150.187 134.674C158.454 142.94 165.254 150.407 165.254 151.207Z" fill="#358483"/>
<path id="Vector_2" d="M51.3872 13.0737C36.5872 16.8071 23.3872 27.8737 16.3206 42.2737C12.9872 48.9404 12.5872 51.2071 12.5872 63.7404C12.5872 76.2737 12.9872 78.5404 16.3206 85.2071C22.0539 96.9404 29.3872 104.274 40.9872 110.007C50.3206 114.674 52.0539 115.074 62.4539 115.074C76.1872 115.074 84.4539 112.54 93.9206 105.34C126.721 80.5404 119.787 29.6071 81.6539 15.3404C74.0539 12.4071 58.5872 11.3404 51.3872 13.0737ZM83.5206 22.5404C118.454 39.4737 117.654 89.7404 82.3206 105.74C75.2539 108.94 72.1872 109.607 63.2539 109.474C57.3872 109.474 50.8539 108.674 48.7206 107.874L44.8539 106.274L50.3206 100.674C55.7872 95.0737 57.5206 90.4071 54.3206 90.4071C53.3872 90.4071 49.9206 93.2071 46.4539 96.5404C41.9206 100.94 39.5206 102.54 37.7872 101.874C35.7872 101.074 35.9206 100.54 38.9872 97.3404C40.9872 95.2071 42.5872 92.9404 42.5872 92.0071C42.5872 89.2071 38.1872 90.2737 34.4539 93.8737L30.8539 97.3404L26.0539 90.9404C19.3872 81.7404 16.7206 72.2737 17.5206 60.5404C19.6539 27.7404 53.6539 8.00706 83.5206 22.5404Z" fill="#358483"/>
<path id="Vector_3" d="M61.3873 25.7404C61.7873 27.4737 63.9206 28.5404 69.3873 29.7404C84.9873 32.8071 95.9206 44.5404 98.1873 60.5404C98.7206 65.0737 99.5206 66.4071 101.121 66.1404C104.454 65.3404 103.521 54.2737 99.2539 45.7404C93.3873 33.7404 81.6539 25.4737 68.3206 24.1404C61.7873 23.4737 60.9873 23.6071 61.3873 25.7404Z" fill="#358483"/>
<path id="Vector_4" d="M52.1872 42.8071C47.1206 44.4071 34.5872 55.0738 34.5872 57.7404C34.5872 61.6071 37.6539 61.0738 41.9206 56.5404C47.2539 50.6738 56.1872 46.4071 63.2539 46.4071C70.5872 46.4071 79.7872 50.8071 84.7206 56.6738C88.7206 61.3404 91.9206 61.7404 91.9206 57.6071C91.9206 54.4071 81.3872 45.3404 74.9872 43.2071C68.0539 40.8071 58.7206 40.6738 52.1872 42.8071Z" fill="#358483"/>
<path id="Vector_5" d="M59.1206 53.0738C47.7872 57.7404 51.1206 74.9404 63.2539 74.9404C72.8539 74.9404 78.0539 63.7404 71.6539 56.5404C68.1872 52.6738 63.2539 51.3404 59.1206 53.0738ZM68.9872 62.9404C69.6539 66.0071 66.8539 69.0738 63.3872 69.0738C57.2539 69.0738 55.1206 62.6738 60.1872 59.2071C62.7206 57.4738 63.5206 57.3404 65.9206 58.9404C67.3872 59.8738 68.7206 61.7404 68.9872 62.9404Z" fill="#358483"/>
<path id="Vector_6" d="M34.9873 68.6738C33.7873 71.7405 45.9206 82.6738 52.8539 84.8071C59.5206 86.8071 66.9873 86.8071 73.7873 84.9405C79.1206 83.4738 91.9206 72.6738 91.9206 69.6071C91.9206 65.8738 88.8539 66.2738 85.5206 70.4071C81.2539 75.8738 70.3206 81.0738 63.1206 81.0738C56.3206 81.0738 45.3873 75.7405 41.5206 70.4071C38.1873 65.8738 36.1873 65.3405 34.9873 68.6738Z" fill="#358483"/>
<path id="Vector_7" d="M94.7206 78.6738C91.9206 84.4071 92.0539 86.4071 95.2539 86.4071C97.5206 86.4071 101.254 79.7404 101.254 75.7404C101.254 71.2071 97.6539 72.8071 94.7206 78.6738Z" fill="#358483"/>
<path id="Vector_8" d="M133.787 126.54C133.387 127.34 137.121 132.274 142.721 137.874C152.321 147.474 152.454 147.607 149.921 150.407C148.054 152.54 147.787 153.474 148.987 154.674C150.187 155.874 151.387 155.474 153.921 153.074C159.254 148.007 158.187 145.074 147.387 134.674C137.521 125.074 135.521 123.874 133.787 126.54Z" fill="#358483"/>
<path id="Vector_9" d="M137.921 5.34042C136.854 8.67375 135.521 10.0071 132.321 10.9404C129.921 11.7404 127.654 13.0738 127.387 14.0071C126.721 15.6071 127.921 16.4071 135.521 19.0738C136.454 19.3404 137.654 21.6071 138.321 23.8738C139.787 29.8738 142.054 30.1404 144.454 24.4071C145.921 21.0738 147.921 19.0738 151.254 17.6071C156.721 15.3404 156.854 13.0738 151.387 11.6071C147.254 10.4071 144.054 6.94042 143.921 3.34042C143.921 -0.792915 139.254 0.673752 137.921 5.34042ZM143.387 13.2071C144.454 15.0738 141.921 17.6071 140.054 16.5404C138.587 15.6071 139.521 11.7404 141.254 11.7404C141.921 11.7404 142.854 12.4071 143.387 13.2071Z" fill="#358483"/>
<path id="Vector_10" d="M85.6539 132.674C84.1872 135.874 82.0539 138.007 79.9206 138.407C75.5206 139.474 75.2539 144.274 79.5206 144.807C82.9872 145.34 86.5872 149.74 86.5872 153.34C86.5872 154.807 87.6539 155.74 89.2539 155.74C90.8539 155.74 91.9206 154.807 91.9206 153.34C91.9206 149.474 95.5206 145.474 100.054 144.54C106.054 143.34 104.721 141.074 95.9206 137.074C94.8539 136.54 93.3872 134.274 92.5872 132.007C90.9872 126.407 88.7206 126.674 85.6539 132.674ZM91.2539 140.94C92.1872 142.54 89.6539 144.14 87.9206 143.074C86.4539 142.14 87.3872 139.74 89.2539 139.74C89.9206 139.74 90.7206 140.274 91.2539 140.94Z" fill="#358483"/>
</g>
</svg>
