<svg width="174" height="174" viewBox="0 0 174 174" fill="none" xmlns="http://www.w3.org/2000/svg">
<path d="M33.6 1.22765C29.3333 2.96099 28 7.76099 28 22.0277V34.561H20.8C16.5333 34.561 13.0667 35.2277 12.1333 36.2943C9.73333 39.2277 13.2 41.2277 20.9333 41.2277H28V104.561V167.894H16.6667H5.33333V95.8943C5.33333 39.2277 5.73333 23.8943 7.06667 23.761C7.86667 23.761 11.0667 23.761 14 23.761C20.2667 24.0277 23.3333 22.2943 22.2667 19.361C20.6667 15.2277 4.13333 17.0943 1.06667 21.761C0.533333 22.561 0 56.0277 0 96.0277C0 164.828 0.133333 168.961 2.4 170.961C4.66667 172.961 12.4 173.228 86.1333 173.228C130.8 173.228 168 172.694 168.8 172.161C173.067 169.361 173.333 165.228 173.333 98.561C173.333 31.8943 173.067 27.761 168.8 24.961C168 24.4277 162 23.8943 155.6 23.8943C145.067 23.8943 143.867 24.161 144.267 26.161C144.667 28.161 146.4 28.561 155.467 28.961L166.4 29.361L166.933 96.961C167.333 134.161 167.333 165.361 166.933 166.294C166.533 167.361 162.4 167.894 152.533 167.894H138.667V107.228V46.6943L148.4 46.2943C155.867 46.0277 158 45.4943 158 43.8943C158 42.2943 155.867 41.761 148.4 41.4943L138.933 41.0943L138.4 25.761C137.867 6.56099 137.867 6.56099 120.533 6.56099C111.067 6.56099 107.733 7.09432 106.133 8.69432C104.267 10.561 104 19.6277 104 89.361V167.894H89.3333H74.6667V92.561V17.2277H86C96.4 17.2277 97.3333 16.961 97.3333 14.561C97.3333 12.161 96.4 11.8943 86 11.8943C74.9333 11.8943 74.6667 11.8943 74.6667 8.69432C74.6667 6.69432 73.2 4.29432 71.2 2.69432C68 0.160985 65.8667 -0.105681 52.1333 0.0276521C43.6 0.0276521 35.3333 0.560985 33.6 1.22765ZM68.1333 7.36099C68.8 7.76099 69.3333 43.4943 69.3333 88.0277V168.028L51.7333 167.628L34.1333 167.228L34.5333 95.8943C34.6667 56.6943 35.0667 24.2943 35.3333 24.161C35.6 23.8943 41.7333 23.4943 48.9333 23.4943C61.0667 23.2277 62 23.0943 62 20.561C62 18.0277 60.9333 17.8943 48.4 17.4943L34.6667 17.0943V11.8943C34.6667 9.09432 35.3333 6.56099 36.4 6.16099C38.5333 5.36099 66.6667 6.42765 68.1333 7.36099ZM132 89.8943V167.894H120.667H109.333V98.561V29.361L117.6 28.961C124.267 28.6943 126 28.161 126.4 26.161C126.8 24.161 125.733 23.8943 118.133 23.8943H109.333V18.8277C109.333 16.0277 109.733 13.2277 110.267 12.8277C110.667 12.2943 115.867 11.8943 121.6 11.8943H132V89.8943Z" fill="#358483"/>
<path d="M40.5333 48.2943C40.2667 49.2276 40.1333 59.6276 40.2667 71.2276L40.6667 92.561H51.3333H62L62.4 69.4943L62.6667 46.561H52C44.4 46.561 41.0667 47.0943 40.5333 48.2943ZM57.3333 69.2276V86.561H51.3333H45.3333V70.161C45.3333 61.0943 45.7333 53.2276 46.2667 52.8276C46.6667 52.2943 49.4667 51.8943 52.2667 51.8943H57.3333V69.2276Z" fill="#358483"/>
<path d="M40.5333 140.561C39.0667 144.294 41.8667 145.361 52.1333 144.961C60.9333 144.561 62 144.294 62 141.894C62 139.494 60.9333 139.228 51.6 138.828C43.0667 138.561 41.2 138.828 40.5333 140.561Z" fill="#358483"/>
<path d="M40.6667 151.894C38.8 154.828 41.8667 155.894 52.1333 155.894C61.6 155.894 62.8 155.628 62.4 153.494C62 151.628 60.2667 151.228 51.7333 150.828C45.7333 150.561 41.2 150.961 40.6667 151.894Z" fill="#358483"/>
<path d="M115.333 47.761C113.733 50.4277 116.133 51.8943 121.467 51.8943C125.867 51.8943 126.8 51.4943 126.4 49.4943C125.867 46.8277 116.8 45.4943 115.333 47.761Z" fill="#358483"/>
<path d="M115.467 59.6277C114 62.0277 117.067 64.0277 121.467 63.6277C124.533 63.361 126.133 62.4277 126.4 60.8277C126.8 58.961 125.867 58.561 121.467 58.561C118.533 58.561 115.867 59.0943 115.467 59.6277Z" fill="#358483"/>
<path d="M116.267 70.961C114 73.6277 117.333 76.161 122.267 75.6277C127.867 74.961 127.467 70.0277 121.867 69.4943C119.467 69.2277 117.067 69.8943 116.267 70.961Z" fill="#358483"/>
<path d="M116.267 140.294C114 142.961 117.333 145.494 122.267 144.961C127.867 144.294 127.467 139.361 121.867 138.828C119.467 138.561 117.067 139.228 116.267 140.294Z" fill="#358483"/>
<path d="M116 153.094C116 155.494 116.8 155.894 121.467 155.894C125.867 155.894 126.8 155.494 126.4 153.494C126.133 151.894 124.533 151.094 120.933 150.828C116.667 150.428 116 150.828 116 153.094Z" fill="#358483"/>
<path d="M80.9333 47.4943C80.4 47.8943 80 57.761 80 69.2277C80 93.2277 80.1333 93.6277 90.2667 92.961L96.6667 92.561L97.0667 69.4943L97.3333 46.561H89.6C85.3333 46.561 81.3333 46.961 80.9333 47.4943ZM92 69.2277C92 85.6277 91.8667 86.561 89.3333 86.561C86.8 86.561 86.6667 85.6277 86.6667 69.2277C86.6667 52.8277 86.8 51.8943 89.3333 51.8943C91.8667 51.8943 92 52.8277 92 69.2277Z" fill="#358483"/>
<path d="M12.2667 70.8277C11.2 71.8943 11.0667 72.8277 12.1333 74.161C14.6667 77.0943 22.6667 75.8943 22.6667 72.561C22.6667 69.361 15.0667 68.0277 12.2667 70.8277Z" fill="#358483"/>
<path d="M144.667 70.8277C144.267 71.8943 144.133 79.6277 144.267 87.8943C144.667 101.361 144.933 103.228 147.067 103.628C149.2 104.028 149.333 102.828 149.067 87.0943C148.8 74.961 148.133 69.8943 147.067 69.4943C146.133 69.2277 145.067 69.8943 144.667 70.8277Z" fill="#358483"/>
<path d="M156.933 70.0277C156.4 70.561 156 78.4277 156 87.4943C156 103.094 156.133 103.894 158.667 103.894C161.333 103.894 161.333 103.228 161.067 86.961C160.667 71.361 159.733 67.2277 156.933 70.0277Z" fill="#358483"/>
<path d="M11.4667 83.2277C10.5333 85.761 13.0667 86.961 18.2667 86.2943C23.8667 85.6277 23.0667 82.0277 17.2 81.4943C13.7333 81.2277 12.1333 81.6277 11.4667 83.2277Z" fill="#358483"/>
<path d="M12.2667 140.161C10 142.428 12.8 145.228 17.6 145.228C21.8667 145.228 24.2667 141.628 21.2 139.761C18.5333 138.161 14.1333 138.294 12.2667 140.161Z" fill="#358483"/>
<path d="M81.4667 140.294C79.0667 143.361 82.9333 145.494 90.2667 144.961C95.6 144.561 96.6667 144.161 96.6667 141.894C96.6667 139.628 95.6 139.228 89.8667 138.828C85.2 138.561 82.5333 139.094 81.4667 140.294Z" fill="#358483"/>
<path d="M145.733 139.361C142.933 140.561 143.733 143.761 147.067 144.694C148.8 145.094 152.533 145.228 155.467 144.961C159.6 144.694 160.667 144.028 160.667 141.894C160.667 139.628 159.733 139.228 154 138.961C150.4 138.828 146.533 138.961 145.733 139.361Z" fill="#358483"/>
<path d="M11.6 152.294C10.5333 155.094 11.7333 155.894 17.6 155.894C21.8667 155.894 22.8 155.494 22.4 153.494C21.8667 150.561 12.6667 149.494 11.6 152.294Z" fill="#358483"/>
<path d="M80.9333 152.428C79.7333 155.361 81.2 155.894 89.6 155.894C96.4 155.894 97.3333 155.628 97.3333 153.228C97.3333 150.828 96.4 150.561 89.4667 150.561C84 150.561 81.4667 151.094 80.9333 152.428Z" fill="#358483"/>
<path d="M144.667 151.894C142.933 154.694 146.133 156.028 153.467 155.628C158.8 155.361 160.667 154.694 160.667 153.228C160.667 150.694 146.133 149.494 144.667 151.894Z" fill="#358483"/>
</svg>
